<svg id="Layer_1" data-name="Layer 1" xmlns="http://www.w3.org/2000/svg" viewBox="0 0 491.95 116.4"><defs><style>.cls-1{fill:#ea6225;}.cls-2{fill:#f69026;}</style></defs><path class="cls-1" d="M71.06,47.38c.15,17.35-12.29,30.32-30,30.68S9.82,66.17,9.7,47.54C9.59,29.81,22.25,17.1,39.73,17,58.1,16.78,71.18,29.4,71.06,47.38Zm-8.39,0c-.31-2.28-.44-4.6-1-6.84A21.73,21.73,0,0,0,43.31,23.72,21.37,21.37,0,0,0,20.8,35.93a25.51,25.51,0,0,0-2.14,16.29c3.66,19.37,24.27,23.15,35.59,13.84C60.07,61.28,62.41,54.81,62.67,47.4Z"/><path class="cls-2" d="M424.69,44.49a8.61,8.61,0,0,0,1.28-1c8.42-9.76,26.76-6.35,30.77,8.31a22.42,22.42,0,0,1-2.17,17.84c-6.07,10.41-21.68,12-29.2,2.92a15,15,0,0,0-1.54-1.34c-.12,1.58-.21,2.65-.29,3.72-.14,2.08-1.34,3.51-3,3.58A3.72,3.72,0,0,1,417,75c0-.48,0-1,0-1.45v-53c0-3.24,1.2-5.06,3.36-5.17S424,17.25,424,20.59q0,10.28,0,20.54v3.14Zm12.37-.86a29.89,29.89,0,0,0-3.67.61C425,46.75,421,56.67,425,65c2.57,5.38,7.42,8.09,13.69,7.64,5-.36,9.24-4,10.91-9.42a17.47,17.47,0,0,0-.12-10.49C447.85,47.35,442.37,43.29,437.06,43.63Z"/><path class="cls-1" d="M86.46,43.63c3-3.62,6.26-5.78,10.43-6.62a19,19,0,0,1,22.49,14.58,23.4,23.4,0,0,1-1.81,15.75C111.8,79.1,94.85,81.1,86.73,70.76a18.05,18.05,0,0,0-.32,2.3c0,6.07,0,12.15,0,18.22a9.19,9.19,0,0,1-.33,2.83,3.65,3.65,0,0,1-4.12,2.43,3.41,3.41,0,0,1-2.84-3.47c-.07-1.64,0-3.28,0-4.92q0-23.28,0-46.57c0-.38,0-.77,0-1.15.1-2.24,1.26-3.59,3.19-3.74s3.43,1.12,3.77,3.47C86.16,41.15,86.27,42.15,86.46,43.63Zm25.72,13.48c0-.67,0-1.35,0-2A13,13,0,0,0,94.55,43.53c-5.66,2.14-9.26,8.47-8.67,15.22.77,8.82,9.13,14.64,17.33,12.06C108.73,69.08,112.2,63.79,112.18,57.11Z"/><path class="cls-1" d="M134,60.09a9.08,9.08,0,0,0,2.77,7.14,14.08,14.08,0,0,0,16.5,2.69c1.28-.65,2.44-1.52,3.68-2.27,2.06-1.23,3.91-1.11,5,.29.93,1.24.52,3-1.12,4.59a18.38,18.38,0,0,1-10.93,4.76c-7.61.81-14.47-.85-19.42-7.12-8.08-10.27-4.86-28.47,9.62-32.63a21.39,21.39,0,0,1,12.23,0C160.13,39.88,165.7,48.7,164.61,57a3.27,3.27,0,0,1-3.2,3.11,17,17,0,0,1-2,0H134Zm.17-6.28h22.93c0-7.64-5.6-11.45-11.78-11.07S133.86,48.28,134.16,53.81Z"/><path class="cls-2" d="M399.41,71.63c-1,1-1.61,1.46-2.1,2-4.89,5.52-13.14,6.2-19.36,2.84-4.27-2.31-5.87-6.06-5.63-10.87.2-4.3,2.54-6.94,6.08-8.77A27.42,27.42,0,0,1,389,54.12l10-.73c1.22-5-2.24-9.19-7.72-9.59a16.19,16.19,0,0,0-10.45,2.62c-2.61,1.72-3.91,1.65-5,0s-.35-3.54,2.05-5c6.09-3.69,12.62-4.7,19.39-2.27,5.09,1.83,8.49,5.29,8.8,12.66.32,7.52.08,15.06.08,22.59,0,.09,0,.19,0,.29-.11,2.08-1.31,3.63-2.91,3.75S400,77,399.67,75.15C399.52,74.23,399.53,73.27,399.41,71.63ZM398.91,59c-2.92,0-5.74-.31-8.47.08a31.68,31.68,0,0,0-7.93,2.34c-2.3,1-3.3,3.13-3.06,5.7a5.26,5.26,0,0,0,3.92,4.85,18.65,18.65,0,0,0,6.22.67C396.12,72.2,400.75,65.47,398.91,59Z"/><path class="cls-1" d="M179.84,43.82c1-1.12,1.48-1.7,2-2.25a14.47,14.47,0,0,1,14.44-4.52c6.13,1.32,10.31,5.79,10.59,12.08.36,8.09.28,16.21.27,24.31,0,2.61-1.45,4-3.59,4S200,76,199.73,73.51a19.75,19.75,0,0,1,0-2.31c0-5.79,0-11.58,0-17.37a21.55,21.55,0,0,0-.4-4c-.7-3.49-2.59-6.08-6.2-6.86a9.45,9.45,0,0,0-9.68,3.13,13.12,13.12,0,0,0-3.14,8.8c0,5.79,0,11.58,0,17.37a8.44,8.44,0,0,1-.52,3.09,3.53,3.53,0,0,1-6.76-1.27c0-.48,0-1,0-1.44q0-15.64,0-31.27a6.9,6.9,0,0,1,.5-3.06,3,3,0,0,1,3.44-1.56,3.35,3.35,0,0,1,2.77,3C179.79,40.85,179.76,42,179.84,43.82Z"/><path class="cls-2" d="M343.72,70.37h21.21a11,11,0,0,1,2.3.11,3.41,3.41,0,0,1,.1,6.73,8.4,8.4,0,0,1-2,.14q-11.85,0-23.71,0c-3.94,0-5.2-1.14-5.67-5a11.16,11.16,0,0,1,0-1.16q0-23.28,0-46.56a11.38,11.38,0,0,1,.52-3.11,3.63,3.63,0,0,1,3.63-2.7A3.87,3.87,0,0,1,343.42,22a17.34,17.34,0,0,1,.11,2.89q0,20.67,0,41.35C343.54,67.47,343.65,68.7,343.72,70.37Z"/><path class="cls-2" d="M476.87,78.58c-4-.34-7.73-1-11-3.28a10.62,10.62,0,0,1-2.19-1.87,3.12,3.12,0,0,1-.14-4.23c1.09-1.27,2.41-1.44,4.15-.41.91.54,1.72,1.25,2.6,1.84a12,12,0,0,0,11,1.39,5.17,5.17,0,0,0,3.83-4.93,4.72,4.72,0,0,0-3.53-4.77c-2.36-.81-4.76-1.52-7.15-2.26-1.47-.46-3-.81-4.41-1.37-3.81-1.49-6.22-4.11-6.42-8.41s1.43-7.79,5.16-10a18.64,18.64,0,0,1,19.22.62,8.37,8.37,0,0,1,1.89,1.77,3,3,0,0,1-.22,4.19,2.59,2.59,0,0,1-3.88.06,11.26,11.26,0,0,0-9.58-3.09,9.76,9.76,0,0,0-4.44,1.79,4.25,4.25,0,0,0,.72,7.22,50.65,50.65,0,0,0,6.81,2.35,62.7,62.7,0,0,1,7.07,2.44c3.42,1.65,5.52,4.29,5.57,8.41.05,4.46-1.57,7.87-5.42,10.13C483.53,78,480.17,78.3,476.87,78.58Z"/><path d="M463.5,115.94h-7.75l-7.94-15.38-.32.09v15.17h-5.06V93.56h7.81l7.81,15,.32,0v-15h5.13Z"/><path d="M404.51,115.89h-5.9V93.55h5.78v8.11h7.3V93.49h5.8v22.39h-5.73v-9h-7.25Z"/><path d="M395,94.47,393.16,99c-1.28-.32-2.48-.69-3.71-.9-4.32-.74-7.09,1.5-7.3,5.89a15.91,15.91,0,0,0,.05,2.49c.47,4,3.52,5.9,7.59,4.51v-3.42l-3.92-.2V103h9.4v12c-4.5,1.26-9,2.11-13.62.29a8.39,8.39,0,0,1-4.81-5.19,15.4,15.4,0,0,1-.48-9.23c1.2-4.74,4.49-7.14,9.16-7.76A17.82,17.82,0,0,1,395,94.47Z"/><path d="M487.32,115.91h-6.44c-.4-1.34-.8-2.66-1.21-4h-7.35c-.38,1.28-.78,2.6-1.21,4h-6.5c2.41-7.48,4.79-14.89,7.21-22.42H480C482.41,100.88,484.84,108.33,487.32,115.91ZM476.17,97.85l-.44,0c-.71,2.92-1.41,5.84-2.14,8.86h4.83C477.65,103.68,476.91,100.77,476.17,97.85Z"/><path d="M425.11,115.9h-6.46l7.23-22.49H434c2.42,7.4,4.85,14.84,7.33,22.45h-6.48c-.39-1.32-.77-2.65-1.18-4h-7.31C426,113.18,425.55,114.51,425.11,115.9Zm7.36-9.15c-.79-3.08-1.54-6-2.28-9l-.36,0-2.21,9Z"/><path class="cls-1" d="M222.28,34.88l27.84.26a5.71,5.71,0,0,1,4.43,2.15l26.78,30.47L252.17,98.71a5.78,5.78,0,0,1-4.31,1.94H222.23A1.66,1.66,0,0,1,220.9,98l25.61-29.95L220.93,37.53A1.66,1.66,0,0,1,222.28,34.88Z"/><path class="cls-2" d="M318.72,2.28l-27.84.25a5.78,5.78,0,0,0-4.43,2.15L260.6,34.88,288.84,66.1a5.74,5.74,0,0,0,4.31,2h25.62a1.67,1.67,0,0,0,1.34-2.66L293.76,35.16,320.07,4.93A1.66,1.66,0,0,0,318.72,2.28Z"/></svg>